0
SECTION
2
HEADER
9
$INSUNITS
70
1
9
$ACADVER
1
AC1014
9
$HANDSEED
5
FFFF
0
ENDSEC
0
SECTION
2
TABLES
0
TABLE
2
VPORT
5
8
100
AcDbSymbolTable
0
ENDTAB
0
TABLE
2
LTYPE
5
5
100
AcDbSymbolTable
0
LTYPE
5
14
100
AcDbSymbolTableRecord
100
AcDbLinetypeTableRecord
2
BYBLOCK
70
0
0
LTYPE
5
15
100
AcDbSymbolTableRecord
100
AcDbLinetypeTableRecord
2
BYLAYER
70
0
0
ENDTAB
0
TABLE
2
LAYER
5
2
100
AcDbSymbolTable
70
2
0
LAYER
5
50
100
AcDbSymbolTableRecord
100
AcDbLayerTableRecord
2
0
70
0
6
CONTINUOUS
0
ENDTAB
0
TABLE
2
STYLE
5
3
100
AcDbSymbolTable
70
1
0
STYLE
5
11
100
AcDbSymbolTableRecord
100
AcDbTextStyleTableRecord
2
STANDARD
70
0
0
ENDTAB
0
TABLE
2
VIEW
5
6
100
AcDbSymbolTable
70
0
0
ENDTAB
0
TABLE
2
UCS
5
7
100
AcDbSymbolTable
70
0
0
ENDTAB
0
TABLE
2
APPID
5
9
100
AcDbSymbolTable
70
2
0
APPID
5
12
100
AcDbSymbolTableRecord
100
AcDbRegAppTableRecord
2
ACAD
70
0
0
ENDTAB
0
TABLE
2
DIMSTYLE
5
A
100
AcDbSymbolTable
70
1
0
ENDTAB
0
TABLE
2
BLOCK_RECORD
5
1
100
AcDbSymbolTable
70
1
0
BLOCK_RECORD
5
1F
100
AcDbSymbolTableRecord
100
AcDbBlockTableRecord
2
*MODEL_SPACE
0
BLOCK_RECORD
5
1B
100
AcDbSymbolTableRecord
100
AcDbBlockTableRecord
2
*PAPER_SPACE
0
ENDTAB
0
ENDSEC
0
SECTION
2
BLOCKS
0
BLOCK
5
20
100
AcDbEntity
100
AcDbBlockBegin
2
*MODEL_SPACE
0
ENDBLK
5
21
100
AcDbEntity
100
AcDbBlockEnd
0
BLOCK
5
1C
100
AcDbEntity
100
AcDbBlockBegin
2
*PAPER_SPACE
0
ENDBLK
5
1D
100
AcDbEntity
100
AcDbBlockEnd
0
ENDSEC
0
SECTION
2
ENTITIES
0
CIRCLE
5
100
100
AcDbEntity
8
0
100
AcDbCircle
10
-0.99999998498150677
20
0
30
0
40
0.12499999999999999
210
0
220
0
230
1
0
CIRCLE
5
101
100
AcDbEntity
8
0
100
AcDbCircle
10
-0.49999998498150677
20
0
30
0
40
0.12499999999999999
210
0
220
0
230
1
0
LINE
5
102
100
AcDbEntity
8
0
100
AcDbLine
10
-0.99999998498150677
20
0
30
0
11
-0.99999998498150677
21
-0.12499999999999999
31
0
0
CIRCLE
5
103
100
AcDbEntity
8
0
100
AcDbCircle
10
0.50000001595714894
20
-3.5
30
0
40
0.12500000000000031
210
0
220
0
230
1
0
CIRCLE
5
104
100
AcDbEntity
8
0
100
AcDbCircle
10
0
20
-3.5
30
0
40
0.12499999999999999
210
0
220
0
230
1
0
CIRCLE
5
105
100
AcDbEntity
8
0
100
AcDbCircle
10
-0.50000001595714894
20
-0.50000001595714894
30
0
40
0.12499999999999999
210
0
220
0
230
1
0
CIRCLE
5
106
100
AcDbEntity
8
0
100
AcDbCircle
10
-0.50000001595714894
20
-3.0000000957428936
30
0
40
0.125
210
0
220
0
230
1
0
LINE
5
107
100
AcDbEntity
8
0
100
AcDbLine
10
0.50000001595714894
20
-4.0000001276571915
30
0
11
4.5000000159571485
21
-4.0000001276571915
31
0
0
LINE
5
108
100
AcDbEntity
8
0
100
AcDbLine
10
4.5000000159571485
20
-4.0000001276571915
30
0
11
5.0000000159571485
21
-4.0000001276571915
31
0
0
LINE
5
109
100
AcDbEntity
8
0
100
AcDbLine
10
0.50000001595714894
20
-4.0000001276571915
30
0
11
-0.49999997747226038
21
-4.0000001276571915
31
0
0
LINE
5
110
100
AcDbEntity
8
0
100
AcDbLine
10
-1.4999999774722599
20
-3.0000001276571919
30
0
11
-1.4999999774722601
21
0.34999999249075331
31
0
0
LINE
5
111
100
AcDbEntity
8
0
100
AcDbLine
10
-1.3499999774722602
20
0.49999999249075339
30
0
11
-0.49989469051140301
21
0.49999999249075344
31
0
0
LINE
5
112
100
AcDbEntity
8
0
100
AcDbLine
10
5.0000000159571485
20
-4.0000001276571915
30
0
11
5.3401074624134566
21
-4.0000001276571941
31
0
0
SPLINE
5
113
100
AcDbEntity
8
0
100
AcDbSpline
70
4
71
5
72
21
73
15
74
0
42
0.000000001
43
0.0000000001
44
0.0000000001
40
0.028886031091119667
40
0.028886031091119667
40
0.028886031091119667
40
0.028886031091119667
40
0.028886031091119667
40
0.028886031091119667
40
0.10000000000000001
40
0.20000000000000001
40
0.30000000000000004
40
0.40000000000000002
40
0.5
40
0.59999999999999998
40
0.69999999999999996
40
0.79999999999999993
40
0.89999999999999991
40
0.98278910463271218
40
0.98278910463271218
40
0.98278910463271218
40
0.98278910463271218
40
0.98278910463271218
40
0.98278910463271218
41
1
41
1
41
1
41
1
41
1
41
1
41
1
41
1
41
1
41
1
41
1
41
1
41
1
41
1
41
1
10
-0.22471331291734351
20
0.31947890035919541
30
0
10
-0.18641387452917177
20
0.23126841698533138
30
0
10
-0.090611056840938134
20
0.021014656953246068
30
0
10
0.075128578751333108
20
-0.30447159155358505
30
0
10
0.33277394460410192
20
-0.73315619916442532
30
0
10
0.71638761614120705
20
-1.2463803705454646
30
0
10
1.1930744644175455
20
-1.7529732500490178
30
0
10
1.743527722592918
20
-2.2191583703698181
30
0
10
2.3674465529386772
20
-2.6451005243780696
30
0
10
3.0596102057515715
20
-3.0336595340031427
30
0
10
3.7878077818772891
20
-3.3760538489276284
30
0
10
4.4064102321985059
20
-3.6249397006791648
30
0
10
4.8844956212640138
20
-3.7972555050357548
30
0
10
5.2021768911021438
20
-3.9038949933123002
30
0
10
5.3478332149636003
20
-3.9512238212254953
30
0
0
CIRCLE
5
114
100
AcDbEntity
8
0
100
AcDbCircle
10
1.5000000478714468
20
-3.0000000957428936
30
0
40
0.12500000000000019
210
0
220
0
230
1
0
CIRCLE
5
115
100
AcDbEntity
8
0
100
AcDbCircle
10
2.5000000797857447
20
-3.5000001117000425
30
0
40
0.12500000000000019
210
0
220
0
230
1
0
ARC
5
116
100
AcDbEntity
8
0
100
AcDbCircle
10
5.3401074624134566
20
-3.9750001276571933
30
0
40
0.02500000000000048
210
-0
220
0
230
1
100
AcDbArc
50
-90
51
71.999210337563667
0
ARC
5
117
100
AcDbEntity
8
0
100
AcDbCircle
10
-0.49989469051140301
20
0.19999999249075354
30
0
40
0.29999999999999999
210
0
220
-0
230
1
100
AcDbArc
50
23.469636681367451
51
90
0
ARC
5
118
100
AcDbEntity
8
0
100
AcDbCircle
10
-1.3499999774722604
20
0.34999999249075364
30
0
40
0.14999999999999972
210
0
220
-0
230
1
100
AcDbArc
50
89.999999999999929
51
180
0
ARC
5
119
100
AcDbEntity
8
0
100
AcDbCircle
10
-0.49999997747226088
20
-3.0000001276571924
30
0
40
0.999999999999999
210
0
220
-0
230
1
100
AcDbArc
50
180
51
270
0
SPLINE
5
120
100
AcDbEntity
8
0
100
AcDbSpline
70
4
71
5
72
21
73
15
74
0
42
0.000000001
43
0.0000000001
44
0.0000000001
40
0
40
0
40
0
40
0
40
0
40
0
40
0.10000000000000001
40
0.20000000000000001
40
0.30000000000000004
40
0.40000000000000002
40
0.5
40
0.59999999999999998
40
0.69999999999999996
40
0.79999999999999993
40
0.89999999999999991
40
1
40
1
40
1
40
1
40
1
40
1
41
1
41
1
41
1
41
1
41
1
41
1
41
1
41
1
41
1
41
1
41
1
41
1
41
1
41
1
41
1
10
4.0974772268556201
20
-3.0399535766854284
30
0
10
4.042916532292125
20
-2.914290500587704
30
0
10
3.9302815292373419
20
-2.6689745983447253
30
0
10
3.7507854163017988
20
-2.3190296818779683
30
0
10
3.4878043837175623
20
-1.8865694156124702
30
0
10
3.1055248500443811
20
-1.393066045831153
30
0
10
2.6537221950996965
20
-0.93567114277900099
30
0
10
2.1198499033762417
20
-0.50516474205591022
30
0
10
1.5038777178841045
20
-0.097314818329260908
30
0
10
0.81887586610438567
20
0.28659063162184595
30
0
10
0.082828753529246263
20
0.64191672428283741
30
0
10
-0.5319499659219078
20
0.89820459493461791
30
0
10
-1.0011071137918983
20
1.0719981183455163
30
0
10
-1.3166242188513542
20
1.1792648026590931
30
0
10
-1.4750693010280094
20
1.2307491449054575
30
0
0
ARC
5
121
100
AcDbEntity
8
0
100
AcDbCircle
10
4.3726586044469862
20
-2.920474668810785
30
0
40
0.29999999999999932
210
0
220
0
230
1
100
AcDbArc
50
203.4696366813674
51
270
0
LINE
5
122
100
AcDbEntity
8
0
100
AcDbLine
10
5.2227638914078431
20
-3.2204746688107844
30
0
11
4.3726586044469862
21
-3.2204746688107844
31
0
0
ARC
5
123
100
AcDbEntity
8
0
100
AcDbCircle
10
5.2227638914078431
20
-3.0704746688107849
30
0
40
0.14999999999999972
210
0
220
0
230
1
100
AcDbArc
50
-90
51
0
0
LINE
5
124
100
AcDbEntity
8
0
100
AcDbLine
10
5.3727638914078417
20
0.27952545133715656
30
0
11
5.3727638914078417
21
-3.070474668810784
31
0
0
ARC
5
125
100
AcDbEntity
8
0
100
AcDbCircle
10
4.3727638914078435
20
0.27952545133715656
30
0
40
0.99999999999999745
210
-0
220
0
230
1
100
AcDbArc
50
0
51
90
0
LINE
5
126
100
AcDbEntity
8
0
100
AcDbLine
10
3.3727638979784342
20
1.2795254513371548
30
0
11
4.3727638914078435
21
1.2795254513371548
31
0
0
LINE
5
127
100
AcDbEntity
8
0
100
AcDbLine
10
3.3727638979784342
20
1.2795254513371548
30
0
11
-0.62723610202155899
21
1.2795254513371535
31
0
0
LINE
5
128
100
AcDbEntity
8
0
100
AcDbLine
10
-0.62723610202155899
20
1.2795254513371535
30
0
11
-1.127236102021558
21
1.2795254513371535
31
0
0
LINE
5
129
100
AcDbEntity
8
0
100
AcDbLine
10
-1.127236102021558
20
1.2795254513371535
30
0
11
-1.4673435484778663
21
1.279525451337155
31
0
0
ARC
5
130
100
AcDbEntity
8
0
100
AcDbCircle
10
-1.4673435484778663
20
1.2545254513371547
30
0
40
0.02500000000000048
210
0
220
-0
230
1
100
AcDbArc
50
90
51
251.99921033756513
0
CIRCLE
5
131
100
AcDbEntity
8
0
100
AcDbCircle
10
1.3727638341498418
20
0.7795254353800054
30
0
40
0.12500000000000019
210
0
220
0
230
1
0
CIRCLE
5
132
100
AcDbEntity
8
0
100
AcDbCircle
10
2.3727638660641386
20
0.27952541942285758
30
0
40
0.12500000000000019
210
0
220
0
230
1
0
CIRCLE
5
133
100
AcDbEntity
8
0
100
AcDbCircle
10
3.3727638979784351
20
0.77952532367996341
30
0
40
0.12500000000000031
210
0
220
0
230
1
0
CIRCLE
5
134
100
AcDbEntity
8
0
100
AcDbCircle
10
3.8727639139355832
20
0.77952532367996341
30
0
40
0.12499999999999999
210
0
220
0
230
1
0
CIRCLE
5
135
100
AcDbEntity
8
0
100
AcDbCircle
10
4.3727639298927325
20
0.27952541942285791
30
0
40
0.125
210
0
220
0
230
1
0
CIRCLE
5
136
100
AcDbEntity
8
0
100
AcDbCircle
10
4.3727639298927325
20
-2.2204746603628833
30
0
40
0.12499999999999999
210
0
220
0
230
1
0
CIRCLE
5
137
100
AcDbEntity
8
0
100
AcDbCircle
10
4.3727638989170901
20
-2.7204746763200318
30
0
40
0.12499999999999999
210
0
220
0
230
1
0
CIRCLE
5
138
100
AcDbEntity
8
0
100
AcDbCircle
10
4.8727638989170892
20
-2.7204746763200314
30
0
40
0.12499999999999999
210
0
220
0
230
1
0
SPLINE
5
139
100
AcDbEntity
8
0
100
AcDbSpline
70
4
71
5
72
21
73
15
74
0
42
0.000000001
43
0.0000000001
44
0.0000000001
40
0
40
0
40
0
40
0
40
0
40
0
40
0.10000000000000001
40
0.20000000000000001
40
0.30000000000000004
40
0.40000000000000002
40
0.5
40
0.59999999999999998
40
0.69999999999999996
40
0.79999999999999993
40
0.89999999999999991
40
1
40
1
40
1
40
1
40
1
40
1
41
1
41
1
41
1
41
1
41
1
41
1
41
1
41
1
41
1
41
1
41
1
41
1
41
1
41
1
41
1
10
4.0974772268556201
20
2.9600464233145711
30
0
10
4.042916532292125
20
3.0857094994122956
30
0
10
3.9302815292373419
20
3.3310254016552747
30
0
10
3.7507854163017988
20
3.6809703181220317
30
0
10
3.4878043837175623
20
4.1134305843875287
30
0
10
3.1055248500443811
20
4.6069339541688468
30
0
10
2.6537221950996965
20
5.0643288572209988
30
0
10
2.1198499033762417
20
5.4948352579440893
30
0
10
1.5038777178841045
20
5.902685181670738
30
0
10
0.81887586610438567
20
6.2865906316218458
30
0
10
0.082828753529246263
20
6.6419167242828374
30
0
10
-0.5319499659219078
20
6.8982045949346178
30
0
10
-1.0011071137918983
20
7.0719981183455154
30
0
10
-1.3166242188513542
20
7.1792648026590928
30
0
10
-1.4750693010280094
20
7.2307491449054568
30
0
0
ARC
5
140
100
AcDbEntity
8
0
100
AcDbCircle
10
4.3726586044469862
20
3.0795253311892146
30
0
40
0.29999999999999932
210
0
220
0
230
1
100
AcDbArc
50
203.4696366813674
51
270
0
LINE
5
141
100
AcDbEntity
8
0
100
AcDbLine
10
5.2227638914078431
20
2.7795253311892152
30
0
11
4.3726586044469862
21
2.7795253311892152
31
0
0
ARC
5
142
100
AcDbEntity
8
0
100
AcDbCircle
10
5.2227638914078431
20
2.9295253311892147
30
0
40
0.14999999999999972
210
0
220
0
230
1
100
AcDbArc
50
-90
51
0
0
LINE
5
143
100
AcDbEntity
8
0
100
AcDbLine
10
5.3727638914078417
20
6.2795254513371566
30
0
11
5.3727638914078417
21
2.9295253311892155
31
0
0
CIRCLE
5
144
100
AcDbEntity
8
0
100
AcDbCircle
10
4.8727638989170892
20
3.2795253236799677
30
0
40
0.12499999999999999
210
0
220
0
230
1
0
CIRCLE
5
145
100
AcDbEntity
8
0
100
AcDbCircle
10
4.3727638989170901
20
3.2795253236799677
30
0
40
0.12499999999999999
210
0
220
0
230
1
0
CIRCLE
5
146
100
AcDbEntity
8
0
100
AcDbCircle
10
4.3727639298927325
20
3.7795253396371167
30
0
40
0.12499999999999999
210
0
220
0
230
1
0
CIRCLE
5
147
100
AcDbEntity
8
0
100
AcDbCircle
10
4.3727639298927325
20
6.2795254194228569
30
0
40
0.125
210
0
220
0
230
1
0
CIRCLE
5
148
100
AcDbEntity
8
0
100
AcDbCircle
10
3.8727639139355832
20
6.7795253236799633
30
0
40
0.12499999999999999
210
0
220
0
230
1
0
CIRCLE
5
149
100
AcDbEntity
8
0
100
AcDbCircle
10
3.3727638979784351
20
6.7795253236799633
30
0
40
0.12500000000000031
210
0
220
0
230
1
0
ARC
5
150
100
AcDbEntity
8
0
100
AcDbCircle
10
4.3727638914078435
20
6.2795254513371566
30
0
40
0.99999999999999745
210
0
220
0
230
1
100
AcDbArc
50
0
51
90
0
CIRCLE
5
151
100
AcDbEntity
8
0
100
AcDbCircle
10
2.3727638660641386
20
6.2795254194228569
30
0
40
0.12500000000000019
210
0
220
0
230
1
0
CIRCLE
5
152
100
AcDbEntity
8
0
100
AcDbCircle
10
1.3727638341498418
20
6.7795254353800045
30
0
40
0.12500000000000019
210
0
220
0
230
1
0
LINE
5
153
100
AcDbEntity
8
0
100
AcDbLine
10
3.3727638979784342
20
7.2795254513371539
30
0
11
-0.62723610202155899
21
7.2795254513371521
31
0
0
LINE
5
154
100
AcDbEntity
8
0
100
AcDbLine
10
3.3727638979784342
20
7.2795254513371539
30
0
11
4.3727638914078435
21
7.2795254513371539
31
0
0
ARC
5
155
100
AcDbEntity
8
0
100
AcDbCircle
10
-1.4673435484778663
20
7.2545254513371544
30
0
40
0.02500000000000048
210
0
220
-0
230
1
100
AcDbArc
50
90
51
251.99921033756542
0
LINE
5
156
100
AcDbEntity
8
0
100
AcDbLine
10
-1.127236102021558
20
7.2795254513371521
30
0
11
-1.4673435484778663
21
7.2795254513371548
31
0
0
LINE
5
157
100
AcDbEntity
8
0
100
AcDbLine
10
-0.62723610202155899
20
7.2795254513371521
30
0
11
-1.127236102021558
21
7.2795254513371521
31
0
0
SPLINE
5
158
100
AcDbEntity
8
0
100
AcDbSpline
70
4
71
5
72
21
73
15
74
0
42
0.000000001
43
0.0000000001
44
0.0000000001
40
0.028886031091119667
40
0.028886031091119667
40
0.028886031091119667
40
0.028886031091119667
40
0.028886031091119667
40
0.028886031091119667
40
0.10000000000000001
40
0.20000000000000001
40
0.30000000000000004
40
0.40000000000000002
40
0.5
40
0.59999999999999998
40
0.69999999999999996
40
0.79999999999999993
40
0.89999999999999991
40
0.98278910463271218
40
0.98278910463271218
40
0.98278910463271218
40
0.98278910463271218
40
0.98278910463271218
40
0.98278910463271218
41
1
41
1
41
1
41
1
41
1
41
1
41
1
41
1
41
1
41
1
41
1
41
1
41
1
41
1
41
1
10
-0.22471331291734351
20
6.3194789003591954
30
0
10
-0.18641387452917177
20
6.2312684169853307
30
0
10
-0.090611056840938134
20
6.0210146569532457
30
0
10
0.075128578751333108
20
5.6955284084464139
30
0
10
0.33277394460410192
20
5.2668438008355745
30
0
10
0.71638761614120705
20
4.7536196294545352
30
0
10
1.1930744644175455
20
4.2470267499509822
30
0
10
1.743527722592918
20
3.7808416296301814
30
0
10
2.3674465529386772
20
3.3548994756219299
30
0
10
3.0596102057515715
20
2.9663404659968569
30
0
10
3.7878077818772891
20
2.6239461510723712
30
0
10
4.4064102321985059
20
2.3750602993208347
30
0
10
4.8844956212640138
20
2.2027444949642447
30
0
10
5.2021768911021438
20
2.0961050066876994
30
0
10
5.3478332149636003
20
2.0487761787745042
30
0
0
ARC
5
159
100
AcDbEntity
8
0
100
AcDbCircle
10
5.3401074624134566
20
2.0249998723428062
30
0
40
0.02500000000000048
210
0
220
0
230
1
100
AcDbArc
50
-90
51
71.999210337563667
0
LINE
5
160
100
AcDbEntity
8
0
100
AcDbLine
10
5.0000000159571485
20
1.9999998723428078
30
0
11
5.3401074624134566
21
1.9999998723428059
31
0
0
LINE
5
161
100
AcDbEntity
8
0
100
AcDbLine
10
4.5000000159571485
20
1.9999998723428078
30
0
11
5.0000000159571485
21
1.9999998723428078
31
0
0
CIRCLE
5
162
100
AcDbEntity
8
0
100
AcDbCircle
10
2.5000000797857447
20
2.499999888299957
30
0
40
0.12500000000000019
210
0
220
0
230
1
0
LINE
5
163
100
AcDbEntity
8
0
100
AcDbLine
10
0.50000001595714894
20
1.9999998723428078
30
0
11
4.5000000159571485
21
1.9999998723428078
31
0
0
LINE
5
164
100
AcDbEntity
8
0
100
AcDbLine
10
0.50000001595714894
20
1.9999998723428078
30
0
11
-0.49999997747226038
21
1.9999998723428078
31
0
0
CIRCLE
5
165
100
AcDbEntity
8
0
100
AcDbCircle
10
0.50000001595714894
20
2.4999999999999996
30
0
40
0.12500000000000031
210
0
220
0
230
1
0
CIRCLE
5
166
100
AcDbEntity
8
0
100
AcDbCircle
10
0
20
2.4999999999999996
30
0
40
0.12499999999999999
210
0
220
0
230
1
0
CIRCLE
5
167
100
AcDbEntity
8
0
100
AcDbCircle
10
1.5000000478714468
20
2.9999999042571059
30
0
40
0.12500000000000019
210
0
220
0
230
1
0
CIRCLE
5
168
100
AcDbEntity
8
0
100
AcDbCircle
10
-0.50000001595714894
20
2.9999999042571059
30
0
40
0.125
210
0
220
0
230
1
0
ARC
5
169
100
AcDbEntity
8
0
100
AcDbCircle
10
-0.49999997747226088
20
2.9999998723428072
30
0
40
0.999999999999999
210
0
220
0
230
1
100
AcDbArc
50
180
51
270
0
LINE
5
170
100
AcDbEntity
8
0
100
AcDbLine
10
-1.4999999774722599
20
2.9999998723428076
30
0
11
-1.4999999774722601
21
6.349999992490754
31
0
0
CIRCLE
5
171
100
AcDbEntity
8
0
100
AcDbCircle
10
-0.50000001595714894
20
5.4999999840428506
30
0
40
0.12499999999999999
210
0
220
0
230
1
0
CIRCLE
5
172
100
AcDbEntity
8
0
100
AcDbCircle
10
-0.49999998498150677
20
6
30
0
40
0.12499999999999999
210
0
220
0
230
1
0
CIRCLE
5
173
100
AcDbEntity
8
0
100
AcDbCircle
10
-0.99999998498150677
20
6
30
0
40
0.12499999999999999
210
0
220
0
230
1
0
ARC
5
174
100
AcDbEntity
8
0
100
AcDbCircle
10
-1.3499999774722604
20
6.349999992490754
30
0
40
0.15000000000000008
210
0
220
-0
230
1
100
AcDbArc
50
89.999999999999929
51
180
0
LINE
5
175
100
AcDbEntity
8
0
100
AcDbLine
10
-1.3499999774722602
20
6.4999999924907534
30
0
11
-0.49989469051140301
21
6.4999999924907534
31
0
0
ARC
5
176
100
AcDbEntity
8
0
100
AcDbCircle
10
-0.49989469051140301
20
6.1999999924907527
30
0
40
0.30000000000000004
210
0
220
-0
230
1
100
AcDbArc
50
23.469636681367597
51
90
0
SPLINE
5
177
100
AcDbEntity
8
0
100
AcDbSpline
70
4
71
5
72
21
73
15
74
0
42
0.000000001
43
0.0000000001
44
0.0000000001
40
0
40
0
40
0
40
0
40
0
40
0
40
0.10000000000000001
40
0.20000000000000001
40
0.30000000000000004
40
0.40000000000000002
40
0.5
40
0.59999999999999998
40
0.69999999999999996
40
0.79999999999999993
40
0.89999999999999991
40
1
40
1
40
1
40
1
40
1
40
1
41
1
41
1
41
1
41
1
41
1
41
1
41
1
41
1
41
1
41
1
41
1
41
1
41
1
41
1
41
1
10
4.0974772268556201
20
8.9600464233145694
30
0
10
4.042916532292125
20
9.085709499412296
30
0
10
3.9302815292373419
20
9.3310254016552729
30
0
10
3.7507854163017988
20
9.6809703181220303
30
0
10
3.4878043837175623
20
10.11343058438753
30
0
10
3.1055248500443811
20
10.606933954168847
30
0
10
2.6537221950996965
20
11.064328857220998
30
0
10
2.1198499033762417
20
11.494835257944089
30
0
10
1.5038777178841045
20
11.902685181670739
30
0
10
0.81887586610438567
20
12.286590631621845
30
0
10
0.082828753529246263
20
12.641916724282838
30
0
10
-0.5319499659219078
20
12.898204594934617
30
0
10
-1.0011071137918983
20
13.071998118345515
30
0
10
-1.3166242188513542
20
13.179264802659093
30
0
10
-1.4750693010280094
20
13.230749144905456
30
0
0
ARC
5
178
100
AcDbEntity
8
0
100
AcDbCircle
10
4.3726586044469862
20
9.0795253311892132
30
0
40
0.29999999999999932
210
0
220
0
230
1
100
AcDbArc
50
203.46963668136749
51
270
0
LINE
5
179
100
AcDbEntity
8
0
100
AcDbLine
10
5.2227638914078431
20
8.7795253311892143
30
0
11
4.3726586044469862
21
8.7795253311892143
31
0
0
ARC
5
180
100
AcDbEntity
8
0
100
AcDbCircle
10
5.2227638914078431
20
8.9295253311892147
30
0
40
0.15000000000000008
210
0
220
0
230
1
100
AcDbArc
50
-90
51
0
0
LINE
5
181
100
AcDbEntity
8
0
100
AcDbLine
10
5.3727638914078417
20
12.279525451337156
30
0
11
5.3727638914078417
21
8.9295253311892147
31
0
0
CIRCLE
5
182
100
AcDbEntity
8
0
100
AcDbCircle
10
4.8727638989170892
20
9.2795253236799677
30
0
40
0.12499999999999999
210
0
220
0
230
1
0
CIRCLE
5
183
100
AcDbEntity
8
0
100
AcDbCircle
10
4.3727638989170901
20
9.279525323679966
30
0
40
0.12499999999999999
210
0
220
0
230
1
0
CIRCLE
5
184
100
AcDbEntity
8
0
100
AcDbCircle
10
4.3727639298927325
20
9.7795253396371162
30
0
40
0.12499999999999999
210
0
220
0
230
1
0
CIRCLE
5
185
100
AcDbEntity
8
0
100
AcDbCircle
10
4.3727639298927325
20
12.279525419422857
30
0
40
0.125
210
0
220
0
230
1
0
CIRCLE
5
186
100
AcDbEntity
8
0
100
AcDbCircle
10
3.8727639139355832
20
12.779525323679964
30
0
40
0.12499999999999999
210
0
220
0
230
1
0
CIRCLE
5
187
100
AcDbEntity
8
0
100
AcDbCircle
10
3.3727638979784351
20
12.779525323679964
30
0
40
0.12500000000000031
210
0
220
0
230
1
0
ARC
5
188
100
AcDbEntity
8
0
100
AcDbCircle
10
4.3727638914078435
20
12.279525451337156
30
0
40
0.99999999999999745
210
0
220
0
230
1
100
AcDbArc
50
0
51
90
0
CIRCLE
5
189
100
AcDbEntity
8
0
100
AcDbCircle
10
2.3727638660641386
20
12.279525419422857
30
0
40
0.12500000000000019
210
0
220
0
230
1
0
CIRCLE
5
190
100
AcDbEntity
8
0
100
AcDbCircle
10
1.3727638341498418
20
12.779525435380004
30
0
40
0.12500000000000019
210
0
220
0
230
1
0
LINE
5
191
100
AcDbEntity
8
0
100
AcDbLine
10
3.3727638979784342
20
13.279525451337152
30
0
11
-0.62723610202155899
21
13.279525451337152
31
0
0
LINE
5
192
100
AcDbEntity
8
0
100
AcDbLine
10
3.3727638979784342
20
13.279525451337152
30
0
11
4.3727638914078435
21
13.279525451337152
31
0
0
ARC
5
193
100
AcDbEntity
8
0
100
AcDbCircle
10
-1.4673435484778663
20
13.254525451337154
30
0
40
0.025000000000001878
210
0
220
-0
230
1
100
AcDbArc
50
90
51
251.99921033756542
0
LINE
5
194
100
AcDbEntity
8
0
100
AcDbLine
10
-1.127236102021558
20
13.279525451337152
30
0
11
-1.4673435484778663
21
13.279525451337156
31
0
0
LINE
5
195
100
AcDbEntity
8
0
100
AcDbLine
10
-0.62723610202155899
20
13.279525451337152
30
0
11
-1.127236102021558
21
13.279525451337152
31
0
0
SPLINE
5
196
100
AcDbEntity
8
0
100
AcDbSpline
70
4
71
5
72
21
73
15
74
0
42
0.000000001
43
0.0000000001
44
0.0000000001
40
0.028886031091119667
40
0.028886031091119667
40
0.028886031091119667
40
0.028886031091119667
40
0.028886031091119667
40
0.028886031091119667
40
0.10000000000000001
40
0.20000000000000001
40
0.30000000000000004
40
0.40000000000000002
40
0.5
40
0.59999999999999998
40
0.69999999999999996
40
0.79999999999999993
40
0.89999999999999991
40
0.98278910463271218
40
0.98278910463271218
40
0.98278910463271218
40
0.98278910463271218
40
0.98278910463271218
40
0.98278910463271218
41
1
41
1
41
1
41
1
41
1
41
1
41
1
41
1
41
1
41
1
41
1
41
1
41
1
41
1
41
1
10
-0.22471331291734351
20
12.319478900359194
30
0
10
-0.18641387452917177
20
12.23126841698533
30
0
10
-0.090611056840938134
20
12.021014656953245
30
0
10
0.075128578751333108
20
11.695528408446414
30
0
10
0.33277394460410192
20
11.266843800835575
30
0
10
0.71638761614120705
20
10.753619629454533
30
0
10
1.1930744644175455
20
10.247026749950981
30
0
10
1.743527722592918
20
9.7808416296301814
30
0
10
2.3674465529386772
20
9.3548994756219308
30
0
10
3.0596102057515715
20
8.966340465996856
30
0
10
3.7878077818772891
20
8.6239461510723707
30
0
10
4.4064102321985059
20
8.3750602993208343
30
0
10
4.8844956212640138
20
8.2027444949642447
30
0
10
5.2021768911021438
20
8.0961050066876989
30
0
10
5.3478332149636003
20
8.0487761787745029
30
0
0
ARC
5
197
100
AcDbEntity
8
0
100
AcDbCircle
10
5.3401074624134566
20
8.0249998723428053
30
0
40
0.024999999999999082
210
0
220
0
230
1
100
AcDbArc
50
-90
51
71.999210337563994
0
LINE
5
198
100
AcDbEntity
8
0
100
AcDbLine
10
5.0000000159571485
20
7.9999998723428076
30
0
11
5.3401074624134566
21
7.9999998723428059
31
0
0
LINE
5
199
100
AcDbEntity
8
0
100
AcDbLine
10
4.5000000159571485
20
7.9999998723428076
30
0
11
5.0000000159571485
21
7.9999998723428076
31
0
0
CIRCLE
5
200
100
AcDbEntity
8
0
100
AcDbCircle
10
2.5000000797857447
20
8.499999888299957
30
0
40
0.12500000000000019
210
0
220
0
230
1
0
LINE
5
201
100
AcDbEntity
8
0
100
AcDbLine
10
0.50000001595714894
20
7.9999998723428076
30
0
11
4.5000000159571485
21
7.9999998723428076
31
0
0
LINE
5
202
100
AcDbEntity
8
0
100
AcDbLine
10
0.50000001595714894
20
7.9999998723428076
30
0
11
-0.49999997747226038
21
7.9999998723428076
31
0
0
CIRCLE
5
203
100
AcDbEntity
8
0
100
AcDbCircle
10
0.50000001595714894
20
8.5
30
0
40
0.12500000000000031
210
0
220
0
230
1
0
CIRCLE
5
204
100
AcDbEntity
8
0
100
AcDbCircle
10
0
20
8.5
30
0
40
0.12499999999999999
210
0
220
0
230
1
0
CIRCLE
5
205
100
AcDbEntity
8
0
100
AcDbCircle
10
1.5000000478714468
20
8.9999999042571055
30
0
40
0.12500000000000019
210
0
220
0
230
1
0
CIRCLE
5
206
100
AcDbEntity
8
0
100
AcDbCircle
10
-0.50000001595714894
20
8.9999999042571055
30
0
40
0.125
210
0
220
0
230
1
0
ARC
5
207
100
AcDbEntity
8
0
100
AcDbCircle
10
-0.49999997747226088
20
8.9999998723428067
30
0
40
0.999999999999999
210
0
220
0
230
1
100
AcDbArc
50
180
51
270
0
LINE
5
208
100
AcDbEntity
8
0
100
AcDbLine
10
-1.4999999774722599
20
8.9999998723428067
30
0
11
-1.4999999774722601
21
12.349999992490753
31
0
0
CIRCLE
5
209
100
AcDbEntity
8
0
100
AcDbCircle
10
-0.50000001595714894
20
11.49999998404285
30
0
40
0.12499999999999999
210
0
220
0
230
1
0
CIRCLE
5
210
100
AcDbEntity
8
0
100
AcDbCircle
10
-0.49999998498150677
20
12
30
0
40
0.12499999999999999
210
0
220
0
230
1
0
CIRCLE
5
211
100
AcDbEntity
8
0
100
AcDbCircle
10
-0.99999998498150677
20
12
30
0
40
0.12499999999999999
210
0
220
0
230
1
0
ARC
5
212
100
AcDbEntity
8
0
100
AcDbCircle
10
-1.3499999774722604
20
12.349999992490753
30
0
40
0.15000000000000008
210
0
220
-0
230
1
100
AcDbArc
50
89.999999999999929
51
180
0
LINE
5
213
100
AcDbEntity
8
0
100
AcDbLine
10
-1.3499999774722602
20
12.499999992490752
30
0
11
-0.49989469051140301
21
12.499999992490752
31
0
0
ARC
5
214
100
AcDbEntity
8
0
100
AcDbCircle
10
-0.49989469051140301
20
12.199999992490753
30
0
40
0.30000000000000038
210
0
220
-0
230
1
100
AcDbArc
50
23.469636681367437
51
90
0
ENDSEC
0
SECTION
2
OBJECTS
0
DICTIONARY
5
C
100
AcDbDictionary
3
ACAD_GROUP
350
D
3
ACAD_MLINESTYLE
350
17
0
DICTIONARY
5
D
100
AcDbDictionary
0
DICTIONARY
5
1A
330
C
100
AcDbDictionary
0
DICTIONARY
5
17
100
AcDbDictionary
0
ENDSEC
0
EOF
