0
SECTION
2
HEADER
9
$INSUNITS
70
1
9
$ACADVER
1
AC1014
9
$HANDSEED
5
FFFF
0
ENDSEC
0
SECTION
2
TABLES
0
TABLE
2
VPORT
5
8
100
AcDbSymbolTable
0
ENDTAB
0
TABLE
2
LTYPE
5
5
100
AcDbSymbolTable
0
LTYPE
5
14
100
AcDbSymbolTableRecord
100
AcDbLinetypeTableRecord
2
BYBLOCK
70
0
0
LTYPE
5
15
100
AcDbSymbolTableRecord
100
AcDbLinetypeTableRecord
2
BYLAYER
70
0
0
LTYPE
5
16
100
AcDbSymbolTableRecord
100
AcDbLinetypeTableRecord
2
DASHED
70
0
3
Dashed __ __ __ __ __ __ __ __ __ __ __ __ __ _
72
65
73
2
40
0.75
49
0.5
74
0
49
-0.25
74
0
0
ENDTAB
0
TABLE
2
LAYER
5
2
100
AcDbSymbolTable
70
3
0
LAYER
5
50
100
AcDbSymbolTableRecord
100
AcDbLayerTableRecord
2
1
70
0
62
7
6
DASHED
0
LAYER
5
51
100
AcDbSymbolTableRecord
100
AcDbLayerTableRecord
2
0
70
0
62
7
6
CONTINUOUS
0
ENDTAB
0
TABLE
2
STYLE
5
3
100
AcDbSymbolTable
70
1
0
STYLE
5
11
100
AcDbSymbolTableRecord
100
AcDbTextStyleTableRecord
2
STANDARD
70
0
0
ENDTAB
0
TABLE
2
VIEW
5
6
100
AcDbSymbolTable
70
0
0
ENDTAB
0
TABLE
2
UCS
5
7
100
AcDbSymbolTable
70
0
0
ENDTAB
0
TABLE
2
APPID
5
9
100
AcDbSymbolTable
70
2
0
APPID
5
12
100
AcDbSymbolTableRecord
100
AcDbRegAppTableRecord
2
ACAD
70
0
0
ENDTAB
0
TABLE
2
DIMSTYLE
5
A
100
AcDbSymbolTable
70
1
0
ENDTAB
0
TABLE
2
BLOCK_RECORD
5
1
100
AcDbSymbolTable
70
1
0
BLOCK_RECORD
5
1F
100
AcDbSymbolTableRecord
100
AcDbBlockTableRecord
2
*MODEL_SPACE
0
BLOCK_RECORD
5
1B
100
AcDbSymbolTableRecord
100
AcDbBlockTableRecord
2
*PAPER_SPACE
0
ENDTAB
0
ENDSEC
0
SECTION
2
BLOCKS
0
BLOCK
5
20
100
AcDbEntity
100
AcDbBlockBegin
2
*MODEL_SPACE
0
ENDBLK
5
21
100
AcDbEntity
100
AcDbBlockEnd
0
BLOCK
5
1C
100
AcDbEntity
100
AcDbBlockBegin
2
*PAPER_SPACE
0
ENDBLK
5
1D
100
AcDbEntity
100
AcDbBlockEnd
0
ENDSEC
0
SECTION
2
ENTITIES
0
POINT
5
100
100
AcDbEntity
8
0
100
AcDbPoint
10
0
20
0
30
0
0
POINT
5
101
100
AcDbEntity
8
0
100
AcDbPoint
10
0
20
3.5999999999999996
30
0
0
CIRCLE
5
102
100
AcDbEntity
8
0
100
AcDbCircle
10
-0.50000001595714894
20
1.0000000319142979
30
0
40
0.1875
210
0
220
0
230
1
0
CIRCLE
5
103
100
AcDbEntity
8
0
100
AcDbCircle
10
-0.50000001595714894
20
-0.99999996808570191
30
0
40
0.125
210
0
220
0
230
1
0
CIRCLE
5
104
100
AcDbEntity
8
0
100
AcDbCircle
10
-1.0000000159571489
20
-0.99999996808570191
30
0
40
0.12500000000000006
210
0
220
0
230
1
0
CIRCLE
5
105
100
AcDbEntity
8
0
100
AcDbCircle
10
-3.5000001117000425
20
-0.99999996808570191
30
0
40
0.12500000000000028
210
0
220
0
230
1
0
CIRCLE
5
106
100
AcDbEntity
8
0
100
AcDbCircle
10
-3.0000000957428936
20
-1.0000000319142979
30
0
40
0.12500000000000003
210
0
220
0
230
1
0
CIRCLE
5
107
100
AcDbEntity
8
0
100
AcDbCircle
10
-2.5000000797857447
20
-1.0000000319142979
30
0
40
0.12500000000000006
210
0
220
0
230
1
0
CIRCLE
5
108
100
AcDbEntity
8
0
100
AcDbCircle
10
-2.0000000638285957
20
-1.0000000319142979
30
0
40
0.12500000000000006
210
0
220
0
230
1
0
CIRCLE
5
109
100
AcDbEntity
8
0
100
AcDbCircle
10
-1.5000000478714468
20
-1.0000000319142979
30
0
40
0.12499999999999994
210
0
220
0
230
1
0
LINE
5
110
100
AcDbEntity
8
0
100
AcDbLine
10
0
20
1.3000000414885873
30
0
11
0
21
-0.80000004148858728
31
0
0
LINE
5
111
100
AcDbEntity
8
0
100
AcDbLine
10
-0.49999999999999989
20
-1.3000000414885873
30
0
11
-4.5902907848963759
21
-1.3000000414885873
31
0
0
SPLINE
5
112
100
AcDbEntity
8
0
100
AcDbSpline
70
4
71
5
72
21
73
15
74
0
42
0.000000001
43
0.0000000001
44
0.0000000001
40
0.079728099562147645
40
0.079728099562147645
40
0.079728099562147645
40
0.079728099562147645
40
0.079728099562147645
40
0.079728099562147645
40
0.10000000000000001
40
0.20000000000000001
40
0.30000000000000004
40
0.40000000000000002
40
0.5
40
0.59999999999999998
40
0.69999999999999996
40
0.79999999999999993
40
0.89999999999999991
40
1
40
1
40
1
40
1
40
1
40
1
41
1
41
1
41
1
41
1
41
1
41
1
41
1
41
1
41
1
41
1
41
1
41
1
41
1
41
1
41
1
10
-4.603445794581881
20
-1.2017616157247391
30
0
10
-4.5834579258241774
20
-1.1963107619076201
30
0
10
-4.4650063896685923
20
-1.1636253014972586
30
0
10
-4.2495413622655072
20
-1.0999957752170688
30
0
10
-3.9402457134131237
20
-0.99728060254542894
30
0
10
-3.5423508970635815
20
-0.84209805369298651
30
0
10
-3.0818306618355167
20
-0.62458747871990805
30
0
10
-2.6351414044688153
20
-0.37169813330535945
30
0
10
-2.2026730472078841
20
-0.082432620902511702
30
0
10
-1.7837075801063229
20
0.24137243425782925
30
0
10
-1.3771597183455824
20
0.59694094194937575
30
0
10
-1.061007732953358
20
0.90463794161621458
30
0
10
-0.82867497567648785
20
1.1476407811551861
30
0
10
-0.67587662788845415
20
1.3149891643326643
30
0
10
-0.6000000191485787
20
1.4000000446800172
30
0
0
ARC
5
113
100
AcDbEntity
8
0
100
AcDbCircle
10
-0.33159433571023605
20
1.1604340862686222
30
0
40
0.35976861915900066
210
0
220
-0
230
1
100
AcDbArc
50
22.825917194396428
51
138.24943838955232
0
ARC
5
114
100
AcDbEntity
8
0
100
AcDbCircle
10
-4.5902907848963759
20
-1.2500000414885872
30
0
40
0.050000000000000107
210
0
220
0
230
1
100
AcDbArc
50
105.25409651339311
51
270
0
ARC
5
115
100
AcDbEntity
8
0
100
AcDbCircle
10
-0.49999999999999978
20
-0.8000000414885875
30
0
40
0.49999999999999978
210
0
220
0
230
1
100
AcDbArc
50
-90
51
0
0
ARC
5
116
100
AcDbEntity
8
0
100
AcDbCircle
10
-0.21422821017632587
20
2.0616148799211467
30
0
40
0.0499999999999996
210
-0
220
0
230
1
100
AcDbArc
50
-74.745903486606949
51
90
0
LINE
5
117
100
AcDbEntity
8
0
100
AcDbLine
10
-4.8045189950726801
20
-0.48838520305601529
30
0
11
-4.8045189950726801
21
1.6116148799211492
31
0
0
CIRCLE
5
118
100
AcDbEntity
8
0
100
AcDbCircle
10
-4.3045189791155325
20
-0.18838519348172744
30
0
40
0.1875
210
0
220
0
230
1
0
CIRCLE
5
119
100
AcDbEntity
8
0
100
AcDbCircle
10
-3.8045189791155352
20
1.8116148065182629
30
0
40
0.12500000000000006
210
0
220
0
230
1
0
CIRCLE
5
120
100
AcDbEntity
8
0
100
AcDbCircle
10
-4.3045189791155325
20
1.8116148065182629
30
0
40
0.125
210
0
220
0
230
1
0
ARC
5
121
100
AcDbEntity
8
0
100
AcDbCircle
10
-4.4729246593624445
20
-0.34881924783605084
30
0
40
0.35976861915899994
210
0
220
0
230
1
100
AcDbArc
50
202.82591719439637
51
318.24943838955227
0
CIRCLE
5
122
100
AcDbEntity
8
0
100
AcDbCircle
10
-2.3045189152869461
20
1.8116148703468589
30
0
40
0.12500000000000006
210
0
220
0
230
1
0
CIRCLE
5
123
100
AcDbEntity
8
0
100
AcDbCircle
10
-3.30451894720124
20
1.8116148703468589
30
0
40
0.12499999999999994
210
0
220
0
230
1
0
ARC
5
124
100
AcDbEntity
8
0
100
AcDbCircle
10
-4.304518995072681
20
1.6116148799211492
30
0
40
0.499999999999997
210
0
220
-0
230
1
100
AcDbArc
50
90
51
180
0
CIRCLE
5
125
100
AcDbEntity
8
0
100
AcDbCircle
10
-1.8045188993298
20
1.8116148703468589
30
0
40
0.12500000000000003
210
0
220
0
230
1
0
CIRCLE
5
126
100
AcDbEntity
8
0
100
AcDbCircle
10
-2.8045189312440937
20
1.8116148703468589
30
0
40
0.12500000000000006
210
0
220
0
230
1
0
CIRCLE
5
127
100
AcDbEntity
8
0
100
AcDbCircle
10
-1.3045188833726538
20
1.8116148065182629
30
0
40
0.12500000000000028
210
0
220
0
230
1
0
LINE
5
128
100
AcDbEntity
8
0
100
AcDbLine
10
-4.304518995072681
20
2.111614879921146
30
0
11
-0.21422821017632587
21
2.111614879921146
31
0
0
SPLINE
5
129
100
AcDbEntity
8
0
100
AcDbSpline
70
4
71
5
72
21
73
15
74
0
42
0.000000001
43
0.0000000001
44
0.0000000001
40
0
40
0
40
0
40
0
40
0
40
0
40
0.10000000000000001
40
0.20000000000000001
40
0.30000000000000004
40
0.40000000000000002
40
0.5
40
0.59999999999999998
40
0.69999999999999996
40
0.79999999999999993
40
0.89999999999999991
40
1
40
1
40
1
40
1
40
1
40
1
41
1
41
1
41
1
41
1
41
1
41
1
41
1
41
1
41
1
41
1
41
1
41
1
41
1
41
1
41
1
10
-0.2010732004858907
20
2.0133764541586436
30
0
10
-0.28966678331728413
20
1.9892162660464665
30
0
10
-0.46468594604331603
20
1.9393621576805209
30
0
10
-0.72071195986673542
20
1.8599787355334969
30
0
10
-1.0504845604185884
20
1.7437048574579828
30
0
10
-1.4507495104884434
20
1.5740982933417542
30
0
10
-1.847329416598551
20
1.3721041430666117
30
0
10
-2.2469438198718916
20
1.1307373319669907
30
0
10
-2.6515560625628343
20
0.84801134650953969
30
0
10
-3.0572802940169903
20
0.52826767805563368
30
0
10
-3.4573368435124459
20
0.17830682885496543
30
0
10
-3.766578449042973
20
-0.11999506210525636
30
0
10
-3.989442382204119
20
-0.35146640434136994
30
0
10
-4.1335684466801039
20
-0.50889342278067462
30
0
10
-4.2045189759241035
20
-0.58838520624744461
30
0
0
CIRCLE
5
130
100
AcDbEntity
8
0
100
AcDbCircle
10
-4.3045189791155325
20
3.4116148065182728
30
0
40
0.1875
210
0
220
0
230
1
0
CIRCLE
5
131
100
AcDbEntity
8
0
100
AcDbCircle
10
-1.3045188833726538
20
5.411614806518263
30
0
40
0.12500000000000028
210
0
220
0
230
1
0
CIRCLE
5
132
100
AcDbEntity
8
0
100
AcDbCircle
10
-1.8045188993298
20
5.4116148703468587
30
0
40
0.12500000000000003
210
0
220
0
230
1
0
LINE
5
133
100
AcDbEntity
8
0
100
AcDbLine
10
-4.304518995072681
20
5.7116148799211457
30
0
11
-0.21422821017632587
21
5.7116148799211457
31
0
0
CIRCLE
5
134
100
AcDbEntity
8
0
100
AcDbCircle
10
-2.8045189312440937
20
5.4116148703468587
30
0
40
0.12500000000000006
210
0
220
0
230
1
0
CIRCLE
5
135
100
AcDbEntity
8
0
100
AcDbCircle
10
-2.3045189152869461
20
5.4116148703468587
30
0
40
0.12500000000000006
210
0
220
0
230
1
0
ARC
5
136
100
AcDbEntity
8
0
100
AcDbCircle
10
-4.304518995072681
20
5.2116148799211492
30
0
40
0.499999999999997
210
0
220
-0
230
1
100
AcDbArc
50
90
51
180
0
LINE
5
137
100
AcDbEntity
8
0
100
AcDbLine
10
-4.8045189950726801
20
3.1116147969439845
30
0
11
-4.8045189950726801
21
5.2116148799211492
31
0
0
CIRCLE
5
138
100
AcDbEntity
8
0
100
AcDbCircle
10
-3.8045189791155352
20
5.411614806518263
30
0
40
0.12500000000000006
210
0
220
0
230
1
0
CIRCLE
5
139
100
AcDbEntity
8
0
100
AcDbCircle
10
-3.30451894720124
20
5.4116148703468587
30
0
40
0.12499999999999994
210
0
220
0
230
1
0
LINE
5
140
100
AcDbEntity
8
0
100
AcDbLine
10
0
20
4.9000000414885871
30
0
11
0
21
2.7999999585114121
31
0
0
ARC
5
141
100
AcDbEntity
8
0
100
AcDbCircle
10
-4.4729246593624445
20
3.2511807521639491
30
0
40
0.35976861915899999
210
0
220
0
230
1
100
AcDbArc
50
202.82591719439637
51
318.24943838955227
0
ARC
5
142
100
AcDbEntity
8
0
100
AcDbCircle
10
-0.49999999999999978
20
2.7999999585114121
30
0
40
0.49999999999999978
210
0
220
0
230
1
100
AcDbArc
50
-90
51
0
0
CIRCLE
5
143
100
AcDbEntity
8
0
100
AcDbCircle
10
-3.5000001117000425
20
2.600000031914298
30
0
40
0.12500000000000028
210
0
220
0
230
1
0
CIRCLE
5
144
100
AcDbEntity
8
0
100
AcDbCircle
10
-3.0000000957428936
20
2.5999999680857018
30
0
40
0.12500000000000003
210
0
220
0
230
1
0
CIRCLE
5
145
100
AcDbEntity
8
0
100
AcDbCircle
10
-0.50000001595714894
20
2.600000031914298
30
0
40
0.125
210
0
220
0
230
1
0
SPLINE
5
146
100
AcDbEntity
8
0
100
AcDbSpline
70
4
71
5
72
21
73
15
74
0
42
0.000000001
43
0.0000000001
44
0.0000000001
40
0.079728099562147645
40
0.079728099562147645
40
0.079728099562147645
40
0.079728099562147645
40
0.079728099562147645
40
0.079728099562147645
40
0.10000000000000001
40
0.20000000000000001
40
0.30000000000000004
40
0.40000000000000002
40
0.5
40
0.59999999999999998
40
0.69999999999999996
40
0.79999999999999993
40
0.89999999999999991
40
1
40
1
40
1
40
1
40
1
40
1
41
1
41
1
41
1
41
1
41
1
41
1
41
1
41
1
41
1
41
1
41
1
41
1
41
1
41
1
41
1
10
-4.603445794581881
20
2.3982383842752606
30
0
10
-4.5834579258241774
20
2.4036892380923796
30
0
10
-4.4650063896685923
20
2.4363746985027412
30
0
10
-4.2495413622655072
20
2.5000042247829311
30
0
10
-3.9402457134131237
20
2.602719397454571
30
0
10
-3.5423508970635815
20
2.7579019463070131
30
0
10
-3.0818306618355167
20
2.9754125212800919
30
0
10
-2.6351414044688153
20
3.2283018666946406
30
0
10
-2.2026730472078841
20
3.5175673790974877
30
0
10
-1.7837075801063229
20
3.8413724342578295
30
0
10
-1.3771597183455824
20
4.1969409419493751
30
0
10
-1.061007732953358
20
4.5046379416162141
30
0
10
-0.82867497567648785
20
4.7476407811551855
30
0
10
-0.67587662788845415
20
4.9149891643326642
30
0
10
-0.6000000191485787
20
5.000000044680017
30
0
0
ARC
5
147
100
AcDbEntity
8
0
100
AcDbCircle
10
-0.33159433571023605
20
4.7604340862686216
30
0
40
0.35976861915900066
210
0
220
-0
230
1
100
AcDbArc
50
22.825917194396492
51
138.24943838955227
0
CIRCLE
5
148
100
AcDbEntity
8
0
100
AcDbCircle
10
-1.0000000159571489
20
2.600000031914298
30
0
40
0.12500000000000006
210
0
220
0
230
1
0
ARC
5
149
100
AcDbEntity
8
0
100
AcDbCircle
10
-4.5902907848963759
20
2.3499999585114129
30
0
40
0.04999999999999994
210
0
220
0
230
1
100
AcDbArc
50
105.25409651339316
51
270
0
CIRCLE
5
150
100
AcDbEntity
8
0
100
AcDbCircle
10
-1.5000000478714468
20
2.5999999680857018
30
0
40
0.12499999999999994
210
0
220
0
230
1
0
LINE
5
151
100
AcDbEntity
8
0
100
AcDbLine
10
-0.49999999999999989
20
2.2999999585114126
30
0
11
-4.5902907848963759
21
2.2999999585114126
31
0
0
CIRCLE
5
152
100
AcDbEntity
8
0
100
AcDbCircle
10
-2.0000000638285957
20
2.5999999680857018
30
0
40
0.12500000000000006
210
0
220
0
230
1
0
CIRCLE
5
153
100
AcDbEntity
8
0
100
AcDbCircle
10
-2.5000000797857447
20
2.5999999680857018
30
0
40
0.12500000000000006
210
0
220
0
230
1
0
CIRCLE
5
154
100
AcDbEntity
8
0
100
AcDbCircle
10
-0.50000001595714894
20
4.6000000319142975
30
0
40
0.1875
210
0
220
0
230
1
0
SPLINE
5
155
100
AcDbEntity
8
0
100
AcDbSpline
70
4
71
5
72
21
73
15
74
0
42
0.000000001
43
0.0000000001
44
0.0000000001
40
0
40
0
40
0
40
0
40
0
40
0
40
0.10000000000000001
40
0.20000000000000001
40
0.30000000000000004
40
0.40000000000000002
40
0.5
40
0.59999999999999998
40
0.69999999999999996
40
0.79999999999999993
40
0.89999999999999991
40
1
40
1
40
1
40
1
40
1
40
1
41
1
41
1
41
1
41
1
41
1
41
1
41
1
41
1
41
1
41
1
41
1
41
1
41
1
41
1
41
1
10
-0.2010732004858907
20
5.6133764541586437
30
0
10
-0.28966678331728413
20
5.5892162660464662
30
0
10
-0.46468594604331603
20
5.5393621576805208
30
0
10
-0.72071195986673542
20
5.4599787355334968
30
0
10
-1.0504845604185884
20
5.3437048574579826
30
0
10
-1.4507495104884434
20
5.1740982933417543
30
0
10
-1.847329416598551
20
4.9721041430666109
30
0
10
-2.2469438198718916
20
4.7307373319669912
30
0
10
-2.6515560625628343
20
4.4480113465095394
30
0
10
-3.0572802940169903
20
4.1282676780556331
30
0
10
-3.4573368435124459
20
3.7783068288549653
30
0
10
-3.766578449042973
20
3.4800049378947437
30
0
10
-3.989442382204119
20
3.2485335956586296
30
0
10
-4.1335684466801039
20
3.0911065772193251
30
0
10
-4.2045189759241035
20
3.011614793752555
30
0
0
ARC
5
156
100
AcDbEntity
8
0
100
AcDbCircle
10
-0.21422821017632587
20
5.6616148799211468
30
0
40
0.0499999999999996
210
0
220
0
230
1
100
AcDbArc
50
-74.745903486606949
51
90
0
CIRCLE
5
157
100
AcDbEntity
8
0
100
AcDbCircle
10
-4.3045189791155325
20
5.411614806518263
30
0
40
0.125
210
0
220
0
230
1
0
ENDSEC
0
SECTION
2
OBJECTS
0
DICTIONARY
5
C
100
AcDbDictionary
3
ACAD_GROUP
350
D
3
ACAD_MLINESTYLE
350
17
0
DICTIONARY
5
D
100
AcDbDictionary
0
DICTIONARY
5
1A
330
C
100
AcDbDictionary
0
DICTIONARY
5
17
100
AcDbDictionary
0
ENDSEC
0
EOF
