0
SECTION
2
HEADER
9
$INSUNITS
70
1
9
$ACADVER
1
AC1014
9
$HANDSEED
5
FFFF
0
ENDSEC
0
SECTION
2
TABLES
0
TABLE
2
VPORT
5
8
100
AcDbSymbolTable
0
ENDTAB
0
TABLE
2
LTYPE
5
5
100
AcDbSymbolTable
0
LTYPE
5
14
100
AcDbSymbolTableRecord
100
AcDbLinetypeTableRecord
2
BYBLOCK
70
0
0
LTYPE
5
15
100
AcDbSymbolTableRecord
100
AcDbLinetypeTableRecord
2
BYLAYER
70
0
0
LTYPE
5
16
100
AcDbSymbolTableRecord
100
AcDbLinetypeTableRecord
2
DASHED
70
0
3
Dashed __ __ __ __ __ __ __ __ __ __ __ __ __ _
72
65
73
2
40
0.75
49
0.5
74
0
49
-0.25
74
0
0
ENDTAB
0
TABLE
2
LAYER
5
2
100
AcDbSymbolTable
70
3
0
LAYER
5
50
100
AcDbSymbolTableRecord
100
AcDbLayerTableRecord
2
1
70
0
62
7
6
DASHED
0
LAYER
5
51
100
AcDbSymbolTableRecord
100
AcDbLayerTableRecord
2
0
70
0
62
7
6
CONTINUOUS
0
ENDTAB
0
TABLE
2
STYLE
5
3
100
AcDbSymbolTable
70
1
0
STYLE
5
11
100
AcDbSymbolTableRecord
100
AcDbTextStyleTableRecord
2
STANDARD
70
0
0
ENDTAB
0
TABLE
2
VIEW
5
6
100
AcDbSymbolTable
70
0
0
ENDTAB
0
TABLE
2
UCS
5
7
100
AcDbSymbolTable
70
0
0
ENDTAB
0
TABLE
2
APPID
5
9
100
AcDbSymbolTable
70
2
0
APPID
5
12
100
AcDbSymbolTableRecord
100
AcDbRegAppTableRecord
2
ACAD
70
0
0
ENDTAB
0
TABLE
2
DIMSTYLE
5
A
100
AcDbSymbolTable
70
1
0
ENDTAB
0
TABLE
2
BLOCK_RECORD
5
1
100
AcDbSymbolTable
70
1
0
BLOCK_RECORD
5
1F
100
AcDbSymbolTableRecord
100
AcDbBlockTableRecord
2
*MODEL_SPACE
0
BLOCK_RECORD
5
1B
100
AcDbSymbolTableRecord
100
AcDbBlockTableRecord
2
*PAPER_SPACE
0
ENDTAB
0
ENDSEC
0
SECTION
2
BLOCKS
0
BLOCK
5
20
100
AcDbEntity
100
AcDbBlockBegin
2
*MODEL_SPACE
0
ENDBLK
5
21
100
AcDbEntity
100
AcDbBlockEnd
0
BLOCK
5
1C
100
AcDbEntity
100
AcDbBlockBegin
2
*PAPER_SPACE
0
ENDBLK
5
1D
100
AcDbEntity
100
AcDbBlockEnd
0
ENDSEC
0
SECTION
2
ENTITIES
0
POINT
5
100
100
AcDbEntity
8
0
100
AcDbPoint
10
0
20
0
30
0
0
POINT
5
101
100
AcDbEntity
8
0
100
AcDbPoint
10
-3.0500000000000003
20
0
30
0
0
POINT
5
102
100
AcDbEntity
8
0
100
AcDbPoint
10
-4.6000000000000014
20
0
30
0
0
POINT
5
103
100
AcDbEntity
8
0
100
AcDbPoint
10
-4.6000000000000014
20
1.9999999999999998
30
0
0
POINT
5
104
100
AcDbEntity
8
0
100
AcDbPoint
10
-3.0500000000000003
20
1.9999999999999998
30
0
0
POINT
5
105
100
AcDbEntity
8
0
100
AcDbPoint
10
0
20
1.9999999999999998
30
0
0
POINT
5
106
100
AcDbEntity
8
0
100
AcDbPoint
10
-4.6000000000000014
20
3.9999999999999996
30
0
0
POINT
5
107
100
AcDbEntity
8
0
100
AcDbPoint
10
-3.0500000000000003
20
3.9999999999999996
30
0
0
POINT
5
108
100
AcDbEntity
8
0
100
AcDbPoint
10
0
20
3.9999999999999996
30
0
0
POINT
5
109
100
AcDbEntity
8
0
100
AcDbPoint
10
-4.6000000000000014
20
6
30
0
0
POINT
5
110
100
AcDbEntity
8
0
100
AcDbPoint
10
-3.0500000000000003
20
6
30
0
0
POINT
5
111
100
AcDbEntity
8
0
100
AcDbPoint
10
0
20
6
30
0
0
POINT
5
112
100
AcDbEntity
8
0
100
AcDbPoint
10
-4.6000000000000014
20
7.9999999999999991
30
0
0
POINT
5
113
100
AcDbEntity
8
0
100
AcDbPoint
10
-3.0500000000000003
20
7.9999999999999991
30
0
0
POINT
5
114
100
AcDbEntity
8
0
100
AcDbPoint
10
0
20
7.9999999999999991
30
0
0
POINT
5
115
100
AcDbEntity
8
0
100
AcDbPoint
10
-4.6000000000000014
20
9.9999999999999982
30
0
0
POINT
5
116
100
AcDbEntity
8
0
100
AcDbPoint
10
-3.0500000000000003
20
9.9999999999999982
30
0
0
POINT
5
117
100
AcDbEntity
8
0
100
AcDbPoint
10
0
20
9.9999999999999982
30
0
0
CIRCLE
5
118
100
AcDbEntity
8
0
100
AcDbCircle
10
-3.1000000478714469
20
0
30
0
40
0.12499999999999997
210
0
220
0
230
1
0
CIRCLE
5
119
100
AcDbEntity
8
0
100
AcDbCircle
10
-2.1000000478714469
20
0
30
0
40
0.12499999999999999
210
0
220
0
230
1
0
LWPOLYLINE
5
120
100
AcDbEntity
8
0
100
AcDbPolyline
90
10
70
1
43
0.0
10
-3.100000054254306
20
-0.20000000638285959
10
-2.1000000095742895
20
-0.20000000638285959
42
0.41421356237309503
10
-1.9000000095742893
20
-6.3828595746614651e-09
10
-1.9000000095742893
20
0.16242649477236457
42
0.18166735949113408
10
-1.9247423401036015
20
0.22827695555921637
10
-2.5247423624436101
20
0.91399126680494036
42
0.45376822659183241
10
-2.6752577013849854
20
0.91399126680494036
10
-3.275257723724994
20
0.2282769555592162
42
0.18166735949113524
10
-3.3000000542543062
20
0.16242649477236476
10
-3.3000000542543062
20
-6.3828593459160445e-09
42
0.41421356237309503
0
CIRCLE
5
121
100
AcDbEntity
8
0
100
AcDbCircle
10
-3.5500000478714471
20
0
30
0
40
0.12499999999999999
210
0
220
0
230
1
0
CIRCLE
5
122
100
AcDbEntity
8
0
100
AcDbCircle
10
-4.5500000478714471
20
0
30
0
40
0.12499999999999997
210
0
220
0
230
1
0
LWPOLYLINE
5
123
100
AcDbEntity
8
0
100
AcDbPolyline
90
10
70
1
43
0.0
10
-3.3500000095742899
20
-6.3828595746614651e-09
10
-3.3500000095742899
20
0.36568923175108864
42
0.16678187615004628
10
-3.3710648716247622
20
0.4270832864154559
10
-3.9710647811889874
20
1.1985118764244871
42
0.48908385342690364
10
-4.1289352341292176
20
1.198511877629497
10
-4.7289351781745941
20
0.42708326758820503
42
0.16678188007265446
10
-4.7499999521730887
20
0.36568921171883062
10
-4.7500000542543077
20
-6.3828593459160445e-09
42
0.41421356237309503
10
-4.5500000542543066
20
-0.20000000638285959
10
-3.5500000095742901
20
-0.20000000638285959
42
0.41421356237309503
0
CIRCLE
5
124
100
AcDbEntity
8
0
100
AcDbCircle
10
-5.1000000478714487
20
0
30
0
40
0.12499999999999999
210
0
220
0
230
1
0
CIRCLE
5
125
100
AcDbEntity
8
0
100
AcDbCircle
10
-6.1000000478714487
20
0
30
0
40
0.12499999999999997
210
0
220
0
230
1
0
LWPOLYLINE
5
126
100
AcDbEntity
8
0
100
AcDbPolyline
90
10
70
1
43
0.0
10
-4.900000009574291
20
-6.3828595746614651e-09
10
-4.900000009574291
20
0.831378467142323
42
0.16678188060263993
10
-4.9421297376583748
20
0.95416657920669223
10
-5.4026620920065991
20
1.5462796885622176
42
0.48908380566571408
10
-5.797338200694762
20
1.5462797151587562
10
-6.2578706692889181
20
0.95416662358836046
42
0.16678191523402128
10
-6.3000002340881274
20
0.83137849024676558
10
-6.3000000542543075
20
-6.3828593459160445e-09
42
0.41421356237309503
10
-6.1000000542543082
20
-0.20000000638285959
10
-5.1000000095742903
20
-0.20000000638285959
42
0.41421356237309503
0
LWPOLYLINE
5
127
100
AcDbEntity
8
0
100
AcDbPolyline
90
10
70
1
43
0.0
10
-3.5500000095742901
20
1.7999999936171402
42
0.41421356237309503
10
-3.3500000095742899
20
1.9999999936171402
10
-3.3500000095742899
20
2.3656892317510887
42
0.16678187615004605
10
-3.3710648716247622
20
2.4270832864154559
10
-3.9710647811889874
20
3.1985118764244871
42
0.48908385342690364
10
-4.1289352341292176
20
3.198511877629497
10
-4.7289351781745941
20
2.427083267588205
42
0.16678188007265388
10
-4.7499999521730887
20
2.3656892117188306
10
-4.7500000542543077
20
1.9999999936171406
42
0.41421356237309503
10
-4.5500000542543066
20
1.7999999936171402
0
LWPOLYLINE
5
128
100
AcDbEntity
8
0
100
AcDbPolyline
90
10
70
1
43
0.0
10
-4.900000009574291
20
1.9999999936171402
10
-4.900000009574291
20
2.8313784671423226
42
0.16678188060264018
10
-4.9421297376583748
20
2.9541665792066918
10
-5.4026620920065991
20
3.5462796885622172
42
0.48908380566571436
10
-5.797338200694762
20
3.546279715158756
10
-6.2578706692889181
20
2.9541666235883604
42
0.16678191523402144
10
-6.3000002340881274
20
2.8313784902467654
10
-6.3000000542543075
20
1.9999999936171406
42
0.41421356237309503
10
-6.1000000542543082
20
1.7999999936171402
10
-5.1000000095742903
20
1.7999999936171402
42
0.41421356237309503
0
CIRCLE
5
129
100
AcDbEntity
8
0
100
AcDbCircle
10
-2.1000000478714469
20
1.9999999999999998
30
0
40
0.12499999999999999
210
0
220
0
230
1
0
LWPOLYLINE
5
130
100
AcDbEntity
8
0
100
AcDbPolyline
90
10
70
1
43
0.0
10
-3.275257723724994
20
2.2282769555592159
42
0.18166735949113508
10
-3.3000000542543062
20
2.1624264947723648
10
-3.3000000542543062
20
1.9999999936171406
42
0.41421356237309503
10
-3.100000054254306
20
1.7999999936171402
10
-2.1000000095742895
20
1.7999999936171402
42
0.41421356237309503
10
-1.9000000095742893
20
1.9999999936171402
10
-1.9000000095742893
20
2.1624264947723644
42
0.18166735949113394
10
-1.9247423401036015
20
2.2282769555592159
10
-2.5247423624436101
20
2.9139912668049401
42
0.45376822659183241
10
-2.6752577013849854
20
2.9139912668049401
0
CIRCLE
5
131
100
AcDbEntity
8
0
100
AcDbCircle
10
-5.1000000478714487
20
1.9999999999999998
30
0
40
0.12499999999999999
210
0
220
0
230
1
0
CIRCLE
5
132
100
AcDbEntity
8
0
100
AcDbCircle
10
-4.5500000478714471
20
1.9999999999999998
30
0
40
0.12499999999999997
210
0
220
0
230
1
0
CIRCLE
5
133
100
AcDbEntity
8
0
100
AcDbCircle
10
-3.1000000478714469
20
1.9999999999999998
30
0
40
0.12499999999999997
210
0
220
0
230
1
0
CIRCLE
5
134
100
AcDbEntity
8
0
100
AcDbCircle
10
-6.1000000478714487
20
1.9999999999999998
30
0
40
0.12499999999999997
210
0
220
0
230
1
0
CIRCLE
5
135
100
AcDbEntity
8
0
100
AcDbCircle
10
-3.5500000478714471
20
1.9999999999999998
30
0
40
0.12499999999999999
210
0
220
0
230
1
0
LWPOLYLINE
5
136
100
AcDbEntity
8
0
100
AcDbPolyline
90
10
70
1
43
0.0
10
-3.5500000095742901
20
3.7999999936171402
42
0.41421356237309503
10
-3.3500000095742899
20
3.9999999936171404
10
-3.3500000095742899
20
4.3656892317510874
42
0.16678187615004708
10
-3.3710648716247622
20
4.4270832864154555
10
-3.9710647811889874
20
5.1985118764244866
42
0.48908385342690536
10
-4.1289352341292176
20
5.198511877629497
10
-4.7289351781745941
20
4.4270832675882046
42
0.16678188007265346
10
-4.7499999521730887
20
4.3656892117188306
10
-4.7500000542543077
20
3.9999999936171404
42
0.41421356237309503
10
-4.5500000542543066
20
3.7999999936171402
0
LWPOLYLINE
5
137
100
AcDbEntity
8
0
100
AcDbPolyline
90
10
70
1
43
0.0
10
-4.900000009574291
20
3.9999999936171404
10
-4.900000009574291
20
4.8313784671423221
42
0.16678188060264029
10
-4.9421297376583748
20
4.9541665792066913
10
-5.4026620920065991
20
5.5462796885622172
42
0.48908380566571436
10
-5.797338200694762
20
5.5462797151587555
10
-6.2578706692889181
20
4.9541666235883604
42
0.16678191523402114
10
-6.3000002340881274
20
4.8313784902467658
10
-6.3000000542543075
20
3.9999999936171404
42
0.41421356237309503
10
-6.1000000542543082
20
3.7999999936171402
10
-5.1000000095742903
20
3.7999999936171402
42
0.41421356237309503
0
CIRCLE
5
138
100
AcDbEntity
8
0
100
AcDbCircle
10
-2.1000000478714469
20
3.9999999999999996
30
0
40
0.12499999999999999
210
0
220
0
230
1
0
LWPOLYLINE
5
139
100
AcDbEntity
8
0
100
AcDbPolyline
90
10
70
1
43
0.0
10
-3.275257723724994
20
4.2282769555592159
42
0.18166735949113508
10
-3.3000000542543062
20
4.1624264947723644
10
-3.3000000542543062
20
3.9999999936171404
42
0.41421356237309503
10
-3.100000054254306
20
3.7999999936171402
10
-2.1000000095742895
20
3.7999999936171402
42
0.41421356237309503
10
-1.9000000095742893
20
3.9999999936171404
10
-1.9000000095742893
20
4.1624264947723644
42
0.18166735949113325
10
-1.9247423401036015
20
4.2282769555592159
10
-2.5247423624436101
20
4.9139912668049401
42
0.45376822659183241
10
-2.6752577013849854
20
4.9139912668049401
0
CIRCLE
5
140
100
AcDbEntity
8
0
100
AcDbCircle
10
-5.1000000478714487
20
3.9999999999999996
30
0
40
0.12499999999999999
210
0
220
0
230
1
0
CIRCLE
5
141
100
AcDbEntity
8
0
100
AcDbCircle
10
-4.5500000478714471
20
3.9999999999999996
30
0
40
0.12499999999999997
210
0
220
0
230
1
0
CIRCLE
5
142
100
AcDbEntity
8
0
100
AcDbCircle
10
-3.1000000478714469
20
3.9999999999999996
30
0
40
0.12499999999999997
210
0
220
0
230
1
0
CIRCLE
5
143
100
AcDbEntity
8
0
100
AcDbCircle
10
-6.1000000478714487
20
3.9999999999999996
30
0
40
0.12499999999999997
210
0
220
0
230
1
0
CIRCLE
5
144
100
AcDbEntity
8
0
100
AcDbCircle
10
-3.5500000478714471
20
3.9999999999999996
30
0
40
0.12499999999999999
210
0
220
0
230
1
0
LWPOLYLINE
5
145
100
AcDbEntity
8
0
100
AcDbPolyline
90
10
70
1
43
0.0
10
-3.5500000095742901
20
5.7999999936171402
42
0.41421356237309503
10
-3.3500000095742899
20
5.9999999936171404
10
-3.3500000095742899
20
6.3656892317510883
42
0.16678187615004675
10
-3.3710648716247622
20
6.4270832864154555
10
-3.9710647811889874
20
7.1985118764244858
42
0.48908385342690364
10
-4.1289352341292176
20
7.198511877629497
10
-4.7289351781745941
20
6.4270832675882046
42
0.16678188007265629
10
-4.7499999521730887
20
6.3656892117188297
10
-4.7500000542543077
20
5.9999999936171404
42
0.41421356237309503
10
-4.5500000542543066
20
5.7999999936171402
0
LWPOLYLINE
5
146
100
AcDbEntity
8
0
100
AcDbPolyline
90
10
70
1
43
0.0
10
-4.900000009574291
20
5.9999999936171404
10
-4.900000009574291
20
6.8313784671423239
42
0.16678188060263832
10
-4.9421297376583748
20
6.9541665792066913
10
-5.4026620920065991
20
7.5462796885622181
42
0.4890838056657123
10
-5.797338200694762
20
7.5462797151587555
10
-6.2578706692889181
20
6.9541666235883604
42
0.16678191523402178
10
-6.3000002340881274
20
6.8313784902467649
10
-6.3000000542543075
20
5.9999999936171404
42
0.41421356237309503
10
-6.1000000542543082
20
5.7999999936171402
10
-5.1000000095742903
20
5.7999999936171402
42
0.41421356237309503
0
CIRCLE
5
147
100
AcDbEntity
8
0
100
AcDbCircle
10
-2.1000000478714469
20
6
30
0
40
0.12499999999999999
210
0
220
0
230
1
0
LWPOLYLINE
5
148
100
AcDbEntity
8
0
100
AcDbPolyline
90
10
70
1
43
0.0
10
-3.275257723724994
20
6.2282769555592159
42
0.18166735949113508
10
-3.3000000542543062
20
6.1624264947723644
10
-3.3000000542543062
20
5.9999999936171404
42
0.41421356237309503
10
-3.100000054254306
20
5.7999999936171402
10
-2.1000000095742895
20
5.7999999936171402
42
0.41421356237309503
10
-1.9000000095742893
20
5.9999999936171404
10
-1.9000000095742893
20
6.1624264947723644
42
0.18166735949113275
10
-1.9247423401036015
20
6.2282769555592159
10
-2.5247423624436101
20
6.9139912668049401
42
0.45376822659183241
10
-2.6752577013849854
20
6.9139912668049401
0
CIRCLE
5
149
100
AcDbEntity
8
0
100
AcDbCircle
10
-5.1000000478714487
20
6
30
0
40
0.12499999999999999
210
0
220
0
230
1
0
CIRCLE
5
150
100
AcDbEntity
8
0
100
AcDbCircle
10
-4.5500000478714471
20
6
30
0
40
0.12499999999999997
210
0
220
0
230
1
0
CIRCLE
5
151
100
AcDbEntity
8
0
100
AcDbCircle
10
-3.1000000478714469
20
6
30
0
40
0.12499999999999997
210
0
220
0
230
1
0
CIRCLE
5
152
100
AcDbEntity
8
0
100
AcDbCircle
10
-6.1000000478714487
20
6
30
0
40
0.12499999999999997
210
0
220
0
230
1
0
CIRCLE
5
153
100
AcDbEntity
8
0
100
AcDbCircle
10
-3.5500000478714471
20
6
30
0
40
0.12499999999999999
210
0
220
0
230
1
0
LWPOLYLINE
5
154
100
AcDbEntity
8
0
100
AcDbPolyline
90
10
70
1
43
0.0
10
-3.5500000095742901
20
7.7999999936171402
42
0.41421356237309503
10
-3.3500000095742899
20
7.9999999936171395
10
-3.3500000095742899
20
8.3656892317510874
42
0.16678187615004675
10
-3.3710648716247622
20
8.4270832864154546
10
-3.9710647811889874
20
9.1985118764244866
42
0.48908385342690708
10
-4.1289352341292176
20
9.1985118776294961
10
-4.7289351781745941
20
8.4270832675882037
42
0.16678188007265704
10
-4.7499999521730887
20
8.3656892117188288
10
-4.7500000542543077
20
7.9999999936171395
42
0.41421356237309503
10
-4.5500000542543066
20
7.7999999936171402
0
LWPOLYLINE
5
155
100
AcDbEntity
8
0
100
AcDbPolyline
90
10
70
1
43
0.0
10
-4.900000009574291
20
7.9999999936171395
10
-4.900000009574291
20
8.8313784671423221
42
0.1667818806026401
10
-4.9421297376583748
20
8.9541665792066922
10
-5.4026620920065991
20
9.5462796885622172
42
0.48908380566571369
10
-5.797338200694762
20
9.5462797151587555
10
-6.2578706692889181
20
8.9541666235883586
42
0.16678191523402039
10
-6.3000002340881274
20
8.8313784902467649
10
-6.3000000542543075
20
7.9999999936171395
42
0.41421356237309503
10
-6.1000000542543082
20
7.7999999936171402
10
-5.1000000095742903
20
7.7999999936171402
42
0.41421356237309503
0
CIRCLE
5
156
100
AcDbEntity
8
0
100
AcDbCircle
10
-2.1000000478714469
20
7.9999999999999991
30
0
40
0.12499999999999999
210
0
220
0
230
1
0
LWPOLYLINE
5
157
100
AcDbEntity
8
0
100
AcDbPolyline
90
10
70
1
43
0.0
10
-3.275257723724994
20
8.228276955559215
42
0.18166735949113508
10
-3.3000000542543062
20
8.1624264947723635
10
-3.3000000542543062
20
7.9999999936171395
42
0.41421356237309503
10
-3.100000054254306
20
7.7999999936171402
10
-2.1000000095742895
20
7.7999999936171402
42
0.41421356237309503
10
-1.9000000095742893
20
7.9999999936171395
10
-1.9000000095742893
20
8.1624264947723635
42
0.18166735949113325
10
-1.9247423401036015
20
8.228276955559215
10
-2.5247423624436101
20
8.9139912668049401
42
0.45376822659182603
10
-2.6752577013849854
20
8.9139912668049401
0
CIRCLE
5
158
100
AcDbEntity
8
0
100
AcDbCircle
10
-5.1000000478714487
20
7.9999999999999991
30
0
40
0.12499999999999999
210
0
220
0
230
1
0
CIRCLE
5
159
100
AcDbEntity
8
0
100
AcDbCircle
10
-4.5500000478714471
20
7.9999999999999991
30
0
40
0.12499999999999997
210
0
220
0
230
1
0
CIRCLE
5
160
100
AcDbEntity
8
0
100
AcDbCircle
10
-3.1000000478714469
20
7.9999999999999991
30
0
40
0.12499999999999997
210
0
220
0
230
1
0
CIRCLE
5
161
100
AcDbEntity
8
0
100
AcDbCircle
10
-6.1000000478714487
20
7.9999999999999991
30
0
40
0.12499999999999997
210
0
220
0
230
1
0
CIRCLE
5
162
100
AcDbEntity
8
0
100
AcDbCircle
10
-3.5500000478714471
20
7.9999999999999991
30
0
40
0.12499999999999999
210
0
220
0
230
1
0
LWPOLYLINE
5
163
100
AcDbEntity
8
0
100
AcDbPolyline
90
10
70
1
43
0.0
10
-3.5500000095742901
20
9.7999999936171385
42
0.41421356237309503
10
-3.3500000095742899
20
9.9999999936171395
10
-3.3500000095742899
20
10.365689231751087
42
0.16678187615004675
10
-3.3710648716247622
20
10.427083286415455
10
-3.9710647811889874
20
11.198511876424485
42
0.48908385342690708
10
-4.1289352341292176
20
11.198511877629494
10
-4.7289351781745941
20
10.427083267588204
42
0.16678188007265704
10
-4.7499999521730887
20
10.365689211718829
10
-4.7500000542543077
20
9.9999999936171395
42
0.41421356237309503
10
-4.5500000542543066
20
9.7999999936171385
0
LWPOLYLINE
5
164
100
AcDbEntity
8
0
100
AcDbPolyline
90
10
70
1
43
0.0
10
-4.900000009574291
20
9.9999999936171395
10
-4.900000009574291
20
10.831378467142322
42
0.1667818806026401
10
-4.9421297376583748
20
10.95416657920669
10
-5.4026620920065991
20
11.546279688562215
42
0.48908380566571369
10
-5.797338200694762
20
11.546279715158756
10
-6.2578706692889181
20
10.954166623588359
42
0.16678191523402039
10
-6.3000002340881274
20
10.831378490246765
10
-6.3000000542543075
20
9.9999999936171395
42
0.41421356237309503
10
-6.1000000542543082
20
9.7999999936171385
10
-5.1000000095742903
20
9.7999999936171385
42
0.41421356237309503
0
CIRCLE
5
165
100
AcDbEntity
8
0
100
AcDbCircle
10
-2.1000000478714469
20
9.9999999999999982
30
0
40
0.12499999999999999
210
0
220
0
230
1
0
LWPOLYLINE
5
166
100
AcDbEntity
8
0
100
AcDbPolyline
90
10
70
1
43
0.0
10
-3.275257723724994
20
10.228276955559215
42
0.18166735949113508
10
-3.3000000542543062
20
10.162426494772363
10
-3.3000000542543062
20
9.9999999936171395
42
0.41421356237309503
10
-3.100000054254306
20
9.7999999936171385
10
-2.1000000095742895
20
9.7999999936171385
42
0.41421356237309503
10
-1.9000000095742893
20
9.9999999936171395
10
-1.9000000095742893
20
10.162426494772363
42
0.18166735949113325
10
-1.9247423401036015
20
10.228276955559215
10
-2.5247423624436101
20
10.91399126680494
42
0.45376822659182603
10
-2.6752577013849854
20
10.91399126680494
0
CIRCLE
5
167
100
AcDbEntity
8
0
100
AcDbCircle
10
-5.1000000478714487
20
9.9999999999999982
30
0
40
0.12499999999999999
210
0
220
0
230
1
0
CIRCLE
5
168
100
AcDbEntity
8
0
100
AcDbCircle
10
-4.5500000478714471
20
9.9999999999999982
30
0
40
0.12499999999999997
210
0
220
0
230
1
0
CIRCLE
5
169
100
AcDbEntity
8
0
100
AcDbCircle
10
-3.1000000478714469
20
9.9999999999999982
30
0
40
0.12499999999999997
210
0
220
0
230
1
0
CIRCLE
5
170
100
AcDbEntity
8
0
100
AcDbCircle
10
-6.1000000478714487
20
9.9999999999999982
30
0
40
0.12499999999999997
210
0
220
0
230
1
0
CIRCLE
5
171
100
AcDbEntity
8
0
100
AcDbCircle
10
-3.5500000478714471
20
9.9999999999999982
30
0
40
0.12499999999999999
210
0
220
0
230
1
0
ENDSEC
0
SECTION
2
OBJECTS
0
DICTIONARY
5
C
100
AcDbDictionary
3
ACAD_GROUP
350
D
3
ACAD_MLINESTYLE
350
17
0
DICTIONARY
5
D
100
AcDbDictionary
0
DICTIONARY
5
1A
330
C
100
AcDbDictionary
0
DICTIONARY
5
17
100
AcDbDictionary
0
ENDSEC
0
EOF
